# xmcd
#
# Track frame offsets: 
#        150
#        19524
#        40293
#        58542
#        81426
#        103035
#        123947
#        139399
#        154371
#        179708
#        212140
#        231349
#        246748
#        275760
#        293979
#
# Disc length: 4223 seconds
#
# Revision: 0
# Processed by: cddbd v1.5.2PL0 Copyright (c) Steve Scherf et al.
# Submitted via: ExactAudioCopyFreeDBPlugin 1.0
#
DISCID=f0107d0f
DTITLE=J T Lauritsen and The Buckshot Hunters - Live
DYEAR=2009
DGENRE=Blues
TTITLE0=What Am I Living For
TTITLE1=The Bug 
TTITLE2=Big Boss Man
TTITLE3=Sex Appeal
TTITLE4=Got You On My Mind
TTITLE5=Broken Circle
TTITLE6=Red Hot
TTITLE7=Harry's Place
TTITLE8=Dance With Me Babe
TTITLE9=Bueno Noches From A Lonely Room
TTITLE10=Is It Love
TTITLE11=Make A Better World
TTITLE12=Bald Headed Woman
TTITLE13=I Just Love You Like I Said
TTITLE14=That's How I Got To Memphis
EXTD=
EXTT0=
EXTT1=
EXTT2=
EXTT3=
EXTT4=
EXTT5=
EXTT6=
EXTT7=
EXTT8=
EXTT9=
EXTT10=
EXTT11=
EXTT12=
EXTT13=
EXTT14=
PLAYORDER=
